<svg id="visual" viewBox="0 0 900 600" width="900" height="600" xmlns="http://www.w3.org/2000/svg" xmlns:xlink="http://www.w3.org/1999/xlink" version="1.1"><rect x="0" y="0" width="900" height="600" fill="#001220"></rect><defs><linearGradient id="grad1_0" x1="33.3%" y1="0%" x2="100%" y2="100%"><stop offset="20%" stop-color="#001220" stop-opacity="1"></stop><stop offset="80%" stop-color="#001220" stop-opacity="1"></stop></linearGradient></defs><defs><linearGradient id="grad2_0" x1="0%" y1="0%" x2="66.7%" y2="100%"><stop offset="20%" stop-color="#001220" stop-opacity="1"></stop><stop offset="80%" stop-color="#001220" stop-opacity="1"></stop></linearGradient></defs><g transform="translate(900, 0)"><path d="M0 432.7C-32.8 408.5 -65.5 384.4 -99.4 370.9C-133.2 357.5 -168.2 354.7 -196.5 340.3C-224.8 326 -246.6 300 -280 280C-313.4 260 -358.4 246 -374.7 216.3C-391 186.7 -378.6 141.4 -383.5 102.8C-388.4 64.1 -410.5 32 -432.7 0L0 0Z" fill="#FBAE3C"></path></g><g transform="translate(0, 600)"><path d="M0 -432.7C37.4 -429.9 74.8 -427.2 112 -417.9C149.2 -408.6 186.2 -392.7 210 -363.7C233.8 -334.7 244.3 -292.6 262.3 -262.3C280.4 -232 305.9 -213.5 328.2 -189.5C350.5 -165.5 369.5 -136 386.4 -103.5C403.2 -71 417.9 -35.5 432.7 0L0 0Z" fill="#FBAE3C"></path></g></svg>