<svg width="900" height="600" viewBox="0 0 900 600" fill="none" xmlns="http://www.w3.org/2000/svg">
<g id="blob-scene-haikei 1" clip-path="url(#clip0_2_2)">
<path id="background" d="M900 0H0V600H900V0Z" fill="#412C47"/>
<path id="bottom 100" d="M359.2 600C440.5 572.3 521.8 544.6 527.2 500.1C532.5 455.6 461.8 394.4 443.6 336.5C425.4 278.6 459.7 224.2 517.6 217.6C575.4 211 656.8 252.2 705.5 263.1C754.2 274 770 254.6 797 215.6C823.9 176.5 862 117.8 900 59.2V600H359.2Z" fill="#61316E"/>
<path id="bottom 50" d="M539.4 600C593.7 581.5 647.9 563.1 651.4 533.4C655 503.7 607.9 462.9 595.7 424.3C583.6 385.8 606.5 349.5 645 345C683.6 340.6 737.9 368.1 770.3 375.4C802.8 382.7 813.4 369.7 831.3 343.7C849.3 317.7 874.6 278.6 900 239.4V600H539.4Z" fill="#A72BC2"/>
<path id="bottom 0" d="M719.7 600C746.8 590.8 773.9 581.5 775.7 566.7C777.5 551.9 753.9 531.5 747.9 512.2C741.8 492.9 753.2 474.7 772.5 472.5C791.8 470.3 818.9 484.1 835.2 487.7C851.4 491.3 856.7 484.9 865.7 471.9C874.6 458.8 887.3 439.3 900 419.7V600H719.7Z" fill="#CE13ED"/>
<path id="left 100" d="M540.8 0C510.8 44.9 480.7 89.9 448.2 120.1C415.6 150.3 380.6 165.8 379.3 219C378.1 272.2 410.7 363.1 379 379C347.3 394.9 251.4 335.9 206 356.8C160.6 377.7 165.9 478.4 140 522.4C114.1 566.4 57 553.6 0 540.8V0H540.8Z" fill="#61316E"/>
<path id="left 50" d="M360.6 0C340.5 30 320.5 59.9 298.8 80.1C277.1 100.2 253.7 110.5 252.9 146C252.1 181.5 273.8 242 252.7 252.7C231.6 263.3 167.6 224 137.3 237.9C107.1 251.8 110.6 318.9 93.3 348.3C76.1 377.6 38 369.1 0 360.6V0H360.6Z" fill="#A72BC2"/>
<path id="left 0" d="M180.3 0C170.3 15 160.2 30 149.4 40C138.5 50.1 126.9 55.3 126.4 73C126 90.7 136.9 121 126.3 126.3C115.8 131.6 83.8 112 68.7 118.9C53.5 125.9 55.3 159.5 46.7 174.1C38 188.8 19 184.5 0 180.3V0H180.3Z" fill="#CE13ED"/>
</g>
<defs>
<clipPath id="clip0_2_2">
<rect width="900" height="600" fill="white"/>
</clipPath>
</defs>
</svg>
